<?xml version="1.0" standalone="no"?>
<!DOCTYPE svg PUBLIC "-//W3C//DTD SVG 20010904//EN"
 "http://www.w3.org/TR/2001/REC-SVG-20010904/DTD/svg10.dtd">
<svg version="1.0" xmlns="http://www.w3.org/2000/svg"
 width="500.000000pt" height="500.000000pt" viewBox="0 0 500.000000 500.000000"
 preserveAspectRatio="xMidYMid meet">
<metadata>
Created by potrace 1.11, written by Peter Selinger 2001-2013
</metadata>
<g transform="translate(0.000000,500.000000) scale(0.100000,-0.100000)"
fill="#000000" stroke="none">
<path d="M1388 3965 c-2 -1 -46 -5 -98 -9 -255 -16 -474 -90 -695 -234 -88
-57 -266 -235 -327 -328 -130 -196 -217 -442 -236 -669 -32 -381 52 -723 244
-1000 43 -62 205 -234 259 -275 139 -106 388 -221 526 -245 16 -3 44 -8 62
-11 206 -37 496 -28 682 22 230 61 431 173 587 326 82 82 99 102 171 205 64
91 160 300 182 396 39 171 46 223 49 387 3 158 -3 238 -28 366 -31 164 -134
396 -237 534 -231 312 -601 506 -1004 526 -55 3 -108 6 -117 8 -9 2 -18 3 -20
1z m257 -464 c158 -38 298 -119 400 -233 53 -59 133 -189 142 -231 3 -15 10
-30 14 -33 5 -3 9 -16 9 -29 0 -13 4 -26 9 -29 4 -3 12 -25 16 -48 4 -24 9
-47 10 -53 16 -59 27 -174 26 -280 -1 -139 -7 -206 -28 -300 -18 -79 -35 -129
-70 -204 -139 -302 -419 -465 -782 -456 -208 5 -369 56 -507 161 -157 119
-278 328 -311 539 -2 17 -8 48 -13 69 -16 72 -9 349 11 445 43 209 123 366
251 493 104 102 283 186 435 204 32 3 59 7 61 9 13 12 251 -6 327 -24z"/>
<path d="M4089 3966 c-2 -2 -42 -6 -89 -9 -245 -18 -438 -103 -593 -262 -165
-169 -233 -388 -203 -650 28 -242 170 -429 409 -540 81 -37 246 -95 402 -140
311 -91 435 -194 438 -363 3 -184 -78 -315 -229 -371 -77 -29 -97 -33 -217
-35 -183 -4 -284 30 -502 172 -174 114 -213 102 -337 -98 -42 -69 -77 -130
-77 -137 -1 -15 91 -95 167 -146 75 -50 239 -129 327 -157 138 -44 257 -59
430 -56 155 4 174 6 260 27 63 15 194 69 250 102 182 107 318 283 375 488 28
102 34 156 33 284 -2 194 -55 329 -179 457 -105 109 -240 176 -586 294 -260
88 -343 128 -414 198 -56 56 -76 105 -77 182 -1 220 169 348 452 339 124 -4
215 -34 371 -121 118 -65 155 -75 202 -53 29 13 50 45 127 190 69 132 74 110
-42 196 -90 66 -271 147 -373 168 -108 22 -180 32 -240 34 -37 1 -71 4 -75 6
-3 3 -8 3 -10 1z"/>
</g>
</svg>
